<svg width="32" height="32" viewBox="0 0 32 32" fill="none" xmlns="http://www.w3.org/2000/svg">
<path d="M0 15.9975L0.0491078 15.9484C2.1576 13.8406 5.01732 12.6565 7.99917 12.6565C10.981 12.6565 13.8407 13.8406 15.9492 15.9484L15.9983 15.9975L15.9492 16.0466C13.8407 18.1543 10.981 19.3384 7.99917 19.3384C5.01732 19.3384 2.15759 18.1543 0.049104 16.0466L0 15.9975Z" fill="#AACF87"/>
<path d="M15.999 32L15.9504 31.9479C13.843 29.8397 12.6592 26.9814 12.6592 24.001C12.6592 21.0207 13.843 18.1623 15.9504 16.0542L15.999 16.0056L16.0511 16.0542C18.1585 18.1623 19.3423 21.0207 19.3423 24.001C19.3423 26.9814 18.1585 29.8397 16.0511 31.9479L15.999 32Z" fill="#AACF87"/>
<path d="M16.0485 15.9485L15.9993 15.9976L15.9478 15.946C13.8393 13.8383 12.6548 10.9796 12.6548 7.99878C12.6548 5.01799 13.8393 2.15928 15.9478 0.0515345L15.9994 -1.26323e-05L16.0485 0.049074C18.1569 2.15682 19.3415 5.01553 19.3415 7.99633C19.3415 10.9771 18.1569 13.8358 16.0485 15.9436L16.0485 15.9485Z" fill="#AACF87"/>
<path d="M32.0001 16.0056L31.9514 15.957C30.9077 14.9131 29.6684 14.0849 28.3043 13.5199C26.9403 12.9549 25.4783 12.6641 24.0018 12.6641C22.5253 12.6641 21.0632 12.9549 19.6992 13.5199C18.3352 14.0849 17.0959 14.9131 16.0521 15.957L16 16.0056L16.0521 16.0542C17.0959 17.0981 18.3352 17.9263 19.6992 18.4913C21.0632 19.0563 22.5253 19.3471 24.0018 19.3471C25.4783 19.3471 26.9403 19.0563 28.3043 18.4913C29.6684 17.9263 30.9077 17.0981 31.9514 16.0542L32.0001 16.0056Z" fill="#AACF87"/>
</svg>
