<svg width="32" height="31" viewBox="0 0 32 31" fill="none" xmlns="http://www.w3.org/2000/svg">
<path d="M11.6443 3.19186C11.8625 1.97823 12.2311 0.561509 13.3853 0.111834C14.5396 -0.33784 15.9799 0.634037 16.4212 1.85735C16.8625 3.08065 16.6492 4.42968 16.4794 5.72551C16.3097 7.02135 16.203 8.40422 16.8334 9.54049C17.8422 11.3585 20.2816 11.7985 22.3524 11.5664C24.4232 11.3344 26.4892 10.6526 28.5406 11.0152C30.592 11.3779 32.5706 13.4087 31.848 15.3669C31.1739 17.1898 28.7976 17.5911 26.848 17.6105C24.8984 17.6298 22.5755 17.7555 21.5764 19.4237C20.8393 20.647 21.1739 22.2329 21.7607 23.5336C22.3475 24.8343 23.1671 26.0672 23.3902 27.4791C23.6133 28.891 22.9828 30.593 21.591 30.9363C19.9906 31.3376 18.5842 29.771 17.9537 28.2479C17.3233 26.7248 16.9304 24.96 15.5822 24.0074C13.914 22.8325 11.5667 23.5239 9.83052 24.5877C8.09434 25.6514 6.54244 27.1503 4.55408 27.629C2.56571 28.1077 -0.0288554 26.9327 0.00024259 24.8971C0.0293406 23.0936 1.94011 21.996 3.6375 21.3239C5.33488 20.6518 7.28929 19.7815 7.61422 18.0069C7.9634 16.1067 6.20298 14.5449 4.65593 13.3845C3.10889 12.224 1.4115 10.5317 1.94011 8.67016C2.50267 6.70223 5.33488 6.25255 7.07591 7.37432C8.30288 8.17213 9.04972 9.48731 9.76747 10.7009C11.3048 9.18752 11.266 5.32903 11.6443 3.19186Z" fill="#AACF87"/>
</svg>
