<svg width="33" height="32" viewBox="0 0 33 32" fill="none" xmlns="http://www.w3.org/2000/svg">
<path d="M32.0034 16C30.4064 14.4009 28.5797 13.0492 26.5836 11.9895C23.7847 10.5059 21.496 8.21581 20.0141 5.4161C18.9576 3.42104 17.6084 1.59542 16.0113 0C14.4078 1.5936 13.0533 3.41941 11.9932 5.4161C10.5102 8.21636 8.22006 10.5065 5.41984 11.9895C3.42372 13.0492 1.59697 14.4009 0 16C1.59596 17.6003 3.42289 18.9521 5.41984 20.0105C8.22006 21.4935 10.5102 23.7836 11.9932 26.5839C13.0496 28.579 14.3988 30.4046 15.996 32C17.5994 30.4064 18.9539 28.5806 20.0141 26.5839C21.496 23.7842 23.7847 21.4941 26.5836 20.0105C28.58 18.9545 30.4069 17.6052 32.0034 16.0076V16Z" fill="#AACF87"/>
<path d="M22.6882 15.9999C22.0219 15.3341 21.2597 14.7715 20.4271 14.3308C19.2595 13.7112 18.3044 12.756 17.6847 11.5884C17.2453 10.7561 16.6826 9.99506 16.0156 9.33105C15.351 9.99616 14.7896 10.757 14.3503 11.5884C13.7307 12.756 12.7755 13.7112 11.6079 14.3308C10.7659 14.7692 9.99459 15.3319 9.32007 15.9999C9.98542 16.667 10.7477 17.2297 11.5812 17.6691C12.7488 18.2887 13.7039 19.2439 14.3236 20.4115C14.7629 21.2428 15.3242 22.0037 15.9889 22.6688C16.6559 22.0048 17.2186 21.2438 17.658 20.4115C18.2776 19.2439 19.2328 18.2887 20.4004 17.6691C21.2433 17.232 22.0147 16.6692 22.6882 15.9999Z" fill="#EE7382"/>
</svg>
