<svg width="32" height="32" viewBox="0 0 32 32" fill="none" xmlns="http://www.w3.org/2000/svg">
<path d="M32 16L31.9518 15.9518C29.862 13.8561 27.0282 12.6733 24.0696 12.6617C26.1541 10.5605 27.3226 7.71897 27.3199 4.75819V4.68319H27.245C24.2806 4.67624 21.4345 5.84591 19.3307 7.9357C19.3191 4.97513 18.1371 2.13945 16.0428 0.0482231L15.9946 0L15.9465 0.0482231C13.8507 2.13891 12.6668 4.97448 12.6533 7.9357C10.5541 5.84885 7.71405 4.67933 4.75502 4.68319H4.68541V4.75819C4.68272 7.71897 5.85128 10.5605 7.93574 12.6617C4.97715 12.6733 2.14337 13.8561 0.0535467 15.9518L0 16L0.0535467 16.0482C2.14337 18.1439 4.97715 19.3267 7.93574 19.3383C5.85047 21.4412 4.68189 24.2846 4.68541 27.2472V27.3168H4.75502C7.71405 27.3207 10.5541 26.1511 12.6533 24.0643C12.6668 27.0255 13.8507 29.8611 15.9465 31.9518L15.9946 32L16.0428 31.9518C18.1371 29.8605 19.3191 27.0249 19.3307 24.0643C21.4305 26.1502 24.2701 27.3195 27.2289 27.3168H27.3039V27.2472C27.3068 24.2847 26.1383 21.4415 24.0535 19.3383C27.0121 19.3267 29.8459 18.1439 31.9357 16.0482L32 16Z" fill="#AACF87"/>
</svg>
