<svg width="40" height="39" viewBox="0 0 40 39" fill="none" xmlns="http://www.w3.org/2000/svg">
<path d="M39.0041 19.5C37.0578 17.5511 34.8315 15.9037 32.3987 14.6122C28.9877 12.804 26.1983 10.013 24.3921 6.60087C23.1046 4.16939 21.4602 1.94442 19.5137 0C17.5595 1.9422 15.9087 4.1674 14.6167 6.60087C12.8093 10.0137 10.0182 12.8048 6.60542 14.6122C4.17265 15.9037 1.94631 17.5511 0 19.5C1.94507 21.4503 4.17164 23.0979 6.60542 24.3878C10.0182 26.1952 12.8093 28.9863 14.6167 32.3991C15.9042 34.8306 17.5486 37.0556 19.4951 39C21.4493 37.0578 23.1001 34.8326 24.3921 32.3991C26.1983 28.987 28.9877 26.196 32.3987 24.3878C34.8319 23.1008 37.0584 21.4563 39.0041 19.5093V19.5Z" fill="#EE7382"/>
<path d="M27.6507 19.4999C26.8385 18.6883 25.9097 18.0027 24.8949 17.4656C23.472 16.7105 22.3078 15.5463 21.5527 14.1233C21.0171 13.109 20.3313 12.1814 19.5184 11.3722C18.7084 12.1828 18.0242 13.1101 17.4888 14.1233C16.7337 15.5463 15.5695 16.7105 14.1466 17.4656C13.1203 17.9999 12.1803 18.6857 11.3582 19.4999C12.1691 20.3129 13.0982 20.9987 14.114 21.5342C15.537 22.2893 16.7011 23.4535 17.4562 24.8765C17.9917 25.8897 18.6758 26.817 19.4858 27.6276C20.2987 26.8184 20.9846 25.8908 21.5201 24.8765C22.2752 23.4535 23.4394 22.2893 24.8623 21.5342C25.8896 21.0015 26.8299 20.3156 27.6507 19.4999Z" fill="#333333"/>
</svg>
