<svg width="84" height="82" viewBox="0 0 84 82" fill="none" xmlns="http://www.w3.org/2000/svg">
<path d="M9.56094 4.85861L8.90882 0L8.25677 4.85861C8.14153 5.71938 7.7464 6.51837 7.13232 7.13246C6.51824 7.74655 5.71929 8.14165 4.85853 8.25689L0 8.90899L4.86772 9.56109C5.72665 9.67478 6.52415 10.0684 7.1368 10.6811C7.74945 11.2937 8.14308 12.0912 8.25677 12.9502L8.90882 17.8088L9.56094 12.9502C9.67423 12.0902 10.0675 11.2914 10.6801 10.6772C11.2926 10.063 12.0903 9.66753 12.95 9.5519L17.8177 8.8998L12.95 8.25689C12.0903 8.14126 11.2926 7.74581 10.6801 7.13161C10.0675 6.51741 9.67423 5.71862 9.56094 4.85861Z" fill="#EE7382"/>
<path d="M42.3784 4.85861L41.7263 0L41.0833 4.85861C40.9681 5.71938 40.573 6.51837 39.9589 7.13246C39.3449 7.74655 38.5459 8.14165 37.6852 8.25689L32.8174 8.90899L37.6852 9.56109C38.5457 9.6729 39.3453 10.0657 39.9598 10.6785C40.5743 11.2913 40.9692 12.0899 41.0833 12.9502L41.7355 17.8088L42.3784 12.9502C42.4936 12.0894 42.8887 11.2904 43.5028 10.6763C44.1168 10.0622 44.9159 9.66714 45.7766 9.5519L50.6443 8.8998L45.7766 8.25689C44.9159 8.14165 44.1168 7.74655 43.5028 7.13246C42.8887 6.51837 42.4936 5.71938 42.3784 4.85861Z" fill="#EE7382"/>
<path d="M73.9013 12.9502L74.5534 17.8088L75.2055 12.9502C75.3207 12.0894 75.7158 11.2904 76.3299 10.6763C76.944 10.0622 77.7429 9.66714 78.6037 9.5519L83.4714 8.8998L78.6037 8.25689C77.7429 8.14165 76.944 7.74655 76.3299 7.13246C75.7158 6.51837 75.3207 5.71938 75.2055 4.85861L74.5534 0L73.9013 4.85861C73.788 5.71862 73.3947 6.51741 72.7822 7.13161C72.1696 7.74581 71.3719 8.14126 70.5123 8.25689L65.6445 8.90899L70.5123 9.56109C71.3718 9.67329 72.1701 10.0664 72.783 10.6794C73.3959 11.2923 73.7891 12.0907 73.9013 12.9502Z" fill="#EE7382"/>
<path d="M9.56094 36.6766L8.90882 31.8088L8.25677 36.6766C8.14006 37.5368 7.7445 38.3349 7.13069 38.9487C6.51688 39.5626 5.7187 39.9581 4.85853 40.0748L0 40.7178L4.86772 41.3699C5.72547 41.4865 6.52133 41.8811 7.13344 42.4932C7.74554 43.1053 8.14013 43.9012 8.25677 44.759L8.90882 49.6267L9.56094 44.759C9.6761 43.9006 10.0702 43.1039 10.6826 42.4915C11.295 41.8791 12.0916 41.485 12.95 41.3699L17.8177 40.7178L12.95 40.0657C12.0911 39.952 11.2935 39.5583 10.6809 38.9457C10.0683 38.333 9.67462 37.5355 9.56094 36.6766Z" fill="#EE7382"/>
<path d="M42.3784 36.6766L41.7263 31.8088L41.0833 36.6766C40.9666 37.5368 40.5711 38.3349 39.9573 38.9487C39.3435 39.5626 38.5453 39.9581 37.6852 40.0748L32.8174 40.7178L37.6852 41.3699C38.5446 41.4846 39.3425 41.8784 39.9564 42.4907C40.5703 43.1029 40.9662 43.8998 41.0833 44.759L41.7355 49.6267L42.3784 44.759C42.4955 43.8998 42.8914 43.1029 43.5053 42.4907C44.1192 41.8784 44.9172 41.4846 45.7766 41.3699L50.6443 40.7178L45.7766 40.0657C44.9166 39.9524 44.1178 39.5591 43.5036 38.9465C42.8894 38.334 42.494 37.5363 42.3784 36.6766Z" fill="#EE7382"/>
<path d="M75.2055 36.6765L74.5534 31.8087L73.9013 36.6765C73.7865 37.5359 73.3928 38.3339 72.7805 38.9478C72.1682 39.5618 71.3714 39.9577 70.5123 40.0748L65.6445 40.7177L70.5214 41.3698C71.3798 41.485 72.1765 41.8791 72.7888 42.4915C73.4012 43.1038 73.7953 43.9005 73.9105 44.7589L74.5626 49.6267L75.2147 44.7589C75.3313 43.9011 75.7259 43.1052 76.338 42.4931C76.9501 41.881 77.746 41.4864 78.6037 41.3698L83.4714 40.7177L78.6037 40.0656C77.7437 39.9523 76.945 39.559 76.3308 38.9465C75.7166 38.3339 75.3211 37.5362 75.2055 36.6765Z" fill="#EE7382"/>
<path d="M9.56094 68.4945L8.90882 63.6267L8.25677 68.4945C8.13967 69.3536 7.74371 70.1505 7.12979 70.7628C6.51587 71.3751 5.71794 71.7688 4.85853 71.8836L0 72.5357L4.86772 73.1878C5.72606 73.303 6.52274 73.6971 7.13512 74.3095C7.74749 74.9218 8.1416 75.7185 8.25677 76.5769L8.90882 81.4447L9.56094 76.5769C9.67423 75.7169 10.0675 74.9181 10.6801 74.3039C11.2926 73.6897 12.0903 73.2942 12.95 73.1786L17.8177 72.5265L12.95 71.8836C12.0916 71.7684 11.295 71.3743 10.6826 70.7619C10.0702 70.1495 9.6761 69.3529 9.56094 68.4945Z" fill="#EE7382"/>
<path d="M42.3784 68.4945L41.7263 63.6267L41.0833 68.4945C40.9662 69.3536 40.5703 70.1505 39.9564 70.7628C39.3425 71.3751 38.5446 71.7688 37.6852 71.8836L32.8174 72.5357L37.6852 73.1878C38.5452 73.3011 39.3439 73.6944 39.9581 74.3069C40.5723 74.9195 40.9677 75.7172 41.0833 76.5769L41.7355 81.4447L42.3784 76.5769C42.4936 75.7161 42.8887 74.9171 43.5028 74.303C44.1168 73.6889 44.9159 73.2938 45.7766 73.1786L50.6443 72.5265L45.7766 71.8836C44.9172 71.7688 44.1192 71.3751 43.5053 70.7628C42.8914 70.1505 42.4955 69.3536 42.3784 68.4945Z" fill="#EE7382"/>
<path d="M75.1963 68.4945L74.5442 63.6267L73.8921 68.4945C73.7774 69.3515 73.3847 70.1472 72.7741 70.7594C72.1635 71.3716 71.3689 71.7666 70.5123 71.8836L65.6445 72.5357L70.5123 73.1878C71.3712 73.3015 72.1687 73.6951 72.7813 74.3078C73.394 74.9204 73.7876 75.7179 73.9013 76.5769L74.5534 81.4447L75.2055 76.5769C75.3207 75.7161 75.7158 74.9171 76.3299 74.303C76.944 73.6889 77.7429 73.2938 78.6037 73.1786L83.4714 72.5265L78.6037 71.8836C77.7426 71.7707 76.9426 71.3777 76.3268 70.7653C75.7111 70.1529 75.3138 69.355 75.1963 68.4945Z" fill="#EE7382"/>
</svg>
