<svg width="39" height="38" viewBox="0 0 39 38" fill="none" xmlns="http://www.w3.org/2000/svg">
<path d="M0 0H0.115106C5.12361 0 9.92696 1.98963 13.4685 5.53122C17.01 9.07281 18.9997 13.8763 18.9997 18.8848V19H18.8845C13.876 19 9.07265 17.0103 5.53111 13.4687C1.98956 9.92713 0 5.12371 0 0.115147V0Z" fill="#EE7382"/>
<path d="M18.9998 19V19.1151C18.9998 24.1237 17.0102 28.9271 13.4686 32.4687C9.92707 36.0103 5.12371 37.9999 0.115212 37.9999H6.70171e-05V37.8848C6.70171e-05 32.8763 1.98967 28.0728 5.53121 24.5312C9.07276 20.9896 13.8761 19 18.8846 19H18.9998Z" fill="#EE7382"/>
<path d="M19.1279 19H19.0127V18.8849C19.0127 13.8763 21.0023 9.07287 24.5439 5.53128C28.0854 1.98968 32.8888 1.89652e-05 37.8973 1.89652e-05H38.0125V0.115166C38.0125 5.12373 36.0228 9.92719 32.4813 13.4688C28.9397 17.0104 24.1364 19 19.1279 19Z" fill="#EE7382"/>
<path d="M37.9994 37.8848V38H37.8842C32.8757 38 28.0724 36.0104 24.5308 32.4688C20.9893 28.9272 18.9997 24.1238 18.9997 19.1152V19H19.1148C24.1233 19 28.9267 20.9897 32.4682 24.5313C36.0098 28.0728 37.9994 32.8763 37.9994 37.8848Z" fill="#EE7382"/>
</svg>
