<svg width="77" height="78" viewBox="0 0 77 78" fill="none" xmlns="http://www.w3.org/2000/svg">
<path d="M19.0752 19.925L19.1923 19.925C24.2171 19.925 29.0362 21.9211 32.5893 25.4742C36.1424 29.0273 38.1385 33.8464 38.1385 38.8713L38.1385 38.9883L38.0214 38.9883C32.9966 38.9883 28.1775 36.9922 24.6244 33.4391C21.0713 29.886 19.0752 25.067 19.0752 20.0421L19.0752 19.925Z" fill="#EE7382"/>
<path d="M19.0645 58.0649L19.0686 57.9449C19.0705 52.9209 21.0671 48.1031 24.6197 44.5505C28.1723 40.9979 32.9901 39.0012 38.0142 38.9994L38.13 38.9994L38.1342 39.1194C38.1323 44.1435 36.1357 48.9613 32.5831 52.5139C29.0305 56.0665 24.2127 58.0631 19.1886 58.0649L19.0645 58.0649Z" fill="#EE7382"/>
<path d="M38.2568 38.9894L38.1398 38.9894L38.1398 38.8665C38.1398 33.8416 40.1359 29.0225 43.6891 25.4694C47.2423 21.9162 52.0613 19.9201 57.0862 19.92L57.2091 19.92L57.2091 20.0371C57.2091 25.0619 55.2129 29.881 51.6598 33.4342C48.1066 36.9873 43.2875 38.9835 38.2626 38.9835L38.2568 38.9894Z" fill="#EE7382"/>
<path d="M57.1954 58.065L57.1954 57.9491C57.1961 55.461 56.7065 52.9971 55.7546 50.6983C54.8028 48.3994 53.4073 46.3107 51.6479 44.5513C49.8886 42.7919 47.7998 41.3965 45.501 40.4446C43.2021 39.4928 40.7382 39.0032 38.2501 39.0039L38.1301 38.9997L38.1343 39.1197C38.1336 41.6078 38.6232 44.0717 39.575 46.3706C40.5269 48.6694 41.9223 50.7582 43.6817 52.5175C45.4411 54.2769 47.5298 55.6724 49.8287 56.6242C52.1275 57.5761 54.5914 58.0657 57.0795 58.065L57.1954 58.065Z" fill="#EE7382"/>
</svg>
