<svg width="16" height="17" viewBox="0 0 16 17" fill="none" xmlns="http://www.w3.org/2000/svg">
<path d="M3.35305 0.5H12.647C14.498 0.501984 15.998 2.00199 16 3.85285V13.1469C15.998 14.998 14.498 16.498 12.6472 16.5H3.35305C1.50203 16.498 0.00198438 14.998 0 13.1472V3.85305C0.00198438 2.00202 1.502 0.501984 3.35285 0.5H3.35303H3.35305ZM12.647 15.1087C13.7299 15.1075 14.6075 14.2299 14.6087 13.1471V3.85308C14.6075 2.77011 13.7299 1.89252 12.6471 1.89133H3.35303C2.27006 1.89252 1.39249 2.77011 1.39131 3.85296V13.147C1.39249 14.23 2.27006 15.1075 3.35293 15.1087H3.35303H12.647ZM8.00001 4.4861C10.2168 4.4861 12.0139 6.28319 12.0139 8.50001C12.0139 10.7168 10.2168 12.5139 8.00001 12.5139C5.78318 12.5139 3.9861 10.7168 3.9861 8.50001C3.98886 6.2843 5.7843 4.48886 7.99974 4.4861H8.00001ZM8.00001 11.1226C9.44845 11.1226 10.6226 9.94843 10.6226 8.50001C10.6226 7.05158 9.44845 5.8774 8.00001 5.8774C6.55157 5.8774 5.3774 7.05158 5.3774 8.50001C5.37896 9.94782 6.55221 11.121 7.99985 11.1226H8.00001ZM13.3078 4.18696C13.3078 4.73636 12.8625 5.18174 12.3131 5.18174C11.7637 5.18174 11.3183 4.73636 11.3183 4.18696C11.3183 3.63755 11.7636 3.19217 12.313 3.19217C12.8624 3.19217 13.3078 3.63755 13.3078 4.18696Z" fill="#333333"/>
</svg>
