<svg width="24" height="24" viewBox="0 0 24 24" fill="none" xmlns="http://www.w3.org/2000/svg">
<path d="M12.77 6.48936L11.899 0L11.0281 6.48936C10.8742 7.63905 10.3464 8.70621 9.52622 9.52641C8.70603 10.3466 7.63892 10.8743 6.48925 11.0282L0 11.8992L6.50153 12.7702C7.64875 12.922 8.71393 13.4478 9.53221 14.2661C10.3505 15.0844 10.8762 16.1496 11.0281 17.2968L11.899 23.7862L12.77 17.2968C12.9213 16.1481 13.4466 15.0812 14.2647 14.2609C15.0829 13.4405 16.1483 12.9124 17.2965 12.7579L23.7981 11.8869L17.2965 11.0282C16.1483 10.8738 15.0829 10.3456 14.2647 9.52527C13.4466 8.70492 12.9213 7.63803 12.77 6.48936Z" fill="#EE7382"/>
</svg>
