<svg width="38" height="38" viewBox="0 0 38 38" fill="none" xmlns="http://www.w3.org/2000/svg">
<path d="M38 19L37.9428 18.9427C35.4611 16.4541 32.096 15.0495 28.5827 15.0358C31.058 12.5405 32.4456 9.16628 32.4424 5.65035V5.56128H32.3534C28.8332 5.55304 25.4534 6.94202 22.9552 9.42365C22.9415 5.90797 21.5378 2.5406 19.0509 0.0572649L18.9936 0L18.9364 0.0572649C16.4477 2.53995 15.0418 5.90719 15.0258 9.42365C12.5329 6.94551 9.16043 5.5567 5.64658 5.56128H5.56392V5.65035C5.56073 9.16628 6.9484 12.5405 9.42369 15.0358C5.91037 15.0495 2.54525 16.4541 0.0635867 18.9427L0 19L0.0635867 19.0573C2.54525 21.5459 5.91037 22.9505 9.42369 22.9642C6.94743 25.4614 5.55974 28.838 5.56392 32.356V32.4387H5.64658C9.16043 32.4433 12.5329 31.0545 15.0258 28.5764C15.0418 32.0928 16.4477 35.46 18.9364 37.9427L18.9936 38L19.0509 37.9427C21.5378 35.4594 22.9415 32.092 22.9552 28.5764C25.4488 31.0533 28.8208 32.4419 32.3343 32.4387H32.4234V32.356C32.4268 28.8381 31.0393 25.4618 28.5636 22.9642C32.0769 22.9505 35.442 21.5459 37.9237 19.0573L38 19Z" fill="#EE7382"/>
</svg>
