<svg width="72" height="72" viewBox="0 0 72 72" fill="none" xmlns="http://www.w3.org/2000/svg">
<path d="M72 36L71.8916 35.8915C67.1895 31.1762 60.8134 28.5148 54.1566 28.4889C58.8467 23.761 61.4759 17.3677 61.4699 10.7059V10.5372H61.3012C54.6314 10.5215 48.2276 13.1533 43.494 17.8553C43.4681 11.194 40.8085 4.81376 36.0964 0.108502L35.9879 0L35.8795 0.108502C31.1641 4.81254 28.5003 11.1926 28.4699 17.8553C23.7466 13.1599 17.3566 10.5285 10.6988 10.5372H10.5422V10.7059C10.5361 17.3677 13.1654 23.761 17.8554 28.4889C11.1986 28.5148 4.82259 31.1762 0.12048 35.8915L0 36L0.12048 36.1085C4.82259 40.8238 11.1986 43.4852 17.8554 43.5111C13.1636 48.2427 10.5343 54.6404 10.5422 61.3061V61.4628H10.6988C17.3566 61.4715 23.7466 58.8401 28.4699 54.1447C28.5003 60.8074 31.1641 67.1875 35.8795 71.8915L35.9879 72L36.0964 71.8915C40.8085 67.1862 43.4681 60.806 43.494 54.1447C48.2187 58.8379 54.6078 61.4689 61.2651 61.4628H61.4337V61.3061C61.4403 54.6407 58.8112 48.2434 54.1205 43.5111C60.7773 43.4852 67.1533 40.8238 71.8554 36.1085L72 36Z" fill="#AACF87"/>
</svg>
